<svg 
 xmlns="http://www.w3.org/2000/svg"
 xmlns:xlink="http://www.w3.org/1999/xlink"
 width="612px" height="340px">
<path fill-rule="evenodd"  fill="rgb(160, 123, 80)"
 d="M32.000,-0.000 C35.314,-0.000 38.000,2.686 38.000,6.000 C38.000,9.314 35.314,12.000 32.000,12.000 C28.686,12.000 26.000,9.314 26.000,6.000 C26.000,2.686 28.686,-0.000 32.000,-0.000 Z"/>
<path fill-rule="evenodd"  fill="rgb(160, 123, 80)"
 d="M6.000,284.000 C9.314,284.000 12.000,286.686 12.000,290.000 C12.000,293.314 9.314,296.000 6.000,296.000 C2.686,296.000 -0.000,293.314 -0.000,290.000 C-0.000,286.686 2.686,284.000 6.000,284.000 Z"/>
<path fill-rule="evenodd"  fill="rgb(160, 123, 80)"
 d="M606.000,104.000 C609.314,104.000 612.000,106.686 612.000,110.000 C612.000,113.314 609.314,116.000 606.000,116.000 C602.686,116.000 600.000,113.314 600.000,110.000 C600.000,106.686 602.686,104.000 606.000,104.000 Z"/>
<path fill-rule="evenodd"  fill="rgb(160, 123, 80)"
 d="M570.000,328.000 C573.314,328.000 576.000,330.686 576.000,334.000 C576.000,337.314 573.314,340.000 570.000,340.000 C566.686,340.000 564.000,337.314 564.000,334.000 C564.000,330.686 566.686,328.000 570.000,328.000 Z"/>
</svg>