<svg width="80" height="71" viewBox="0 0 80 71" fill="none" xmlns="http://www.w3.org/2000/svg">
<mask id="path-1-inside-1" fill="white">
<path d="M32.4111 31.2086C27.1142 31.2086 22.8049 35.5138 22.8049 40.8054C22.8049 45.642 26.396 48.5296 32.4111 48.5296C38.4263 48.5296 42.0174 45.642 42.0174 40.8054C42.0174 35.5138 37.708 31.2086 32.4111 31.2086ZM32.4111 46.1888C29.6986 46.1888 25.1478 45.4894 25.1478 40.8052C25.1478 36.804 28.4061 33.5491 32.4111 33.5491C36.416 33.5491 39.6744 36.804 39.6744 40.8052C39.6744 45.4894 35.1236 46.1888 32.4111 46.1888Z"/>
<path d="M27.7252 21.846C25.3306 21.846 23.742 24.8046 23.742 26.7615C23.742 28.9555 25.5287 30.7407 27.7252 30.7407C29.9216 30.7407 31.7083 28.9557 31.7083 26.7615C31.7083 24.8045 30.1197 21.846 27.7252 21.846ZM27.7252 28.3998C26.8208 28.3998 26.085 27.6649 26.085 26.7613C26.085 25.6543 27.02 24.1865 27.7252 24.1865C28.4303 24.1865 29.3653 25.6543 29.3653 26.7613C29.3653 27.6648 28.6295 28.3998 27.7252 28.3998Z"/>
<path d="M37.097 21.846C34.7025 21.846 33.1139 24.8046 33.1139 26.7615C33.1139 28.9555 34.9006 30.7407 37.097 30.7407C39.2934 30.7407 41.0801 28.9557 41.0801 26.7615C41.0801 24.8045 39.4916 21.846 37.097 21.846ZM37.097 28.3998C36.1927 28.3998 35.4569 27.6649 35.4569 26.7613C35.4569 25.6543 36.3919 24.1865 37.097 24.1865C37.8022 24.1865 38.7372 25.6543 38.7372 26.7613C38.7372 27.6648 38.0014 28.3998 37.097 28.3998Z"/>
<path d="M44.5945 27.4636C42.1999 27.4636 40.6113 30.4222 40.6113 32.379C40.6113 34.5731 42.3981 36.3582 44.5945 36.3582C46.7909 36.3582 48.5776 34.5733 48.5776 32.379C48.5776 30.4221 46.989 27.4636 44.5945 27.4636ZM44.5945 34.0174C43.6901 34.0174 42.9543 33.2825 42.9543 32.3789C42.9543 31.2719 43.8893 29.8041 44.5945 29.8041C45.2996 29.8041 46.2346 31.2719 46.2346 32.3789C46.2346 33.2824 45.4988 34.0174 44.5945 34.0174Z"/>
<path d="M20.2276 27.4636C17.833 27.4636 16.2444 30.4222 16.2444 32.379C16.2444 34.5731 18.0312 36.3582 20.2276 36.3582C22.424 36.3582 24.2107 34.5733 24.2107 32.379C24.2107 30.4221 22.6221 27.4636 20.2276 27.4636ZM20.2276 34.0174C19.3232 34.0174 18.5874 33.2825 18.5874 32.3789C18.5874 31.2719 19.5224 29.8041 20.2276 29.8041C20.9327 29.8041 21.8677 31.2719 21.8677 32.3789C21.8677 33.2824 21.1319 34.0174 20.2276 34.0174Z"/>
<path d="M34.9103 38.6987H33.5826V37.3724C33.5826 36.7258 33.0581 36.2021 32.4112 36.2021C31.7644 36.2021 31.2398 36.726 31.2398 37.3724V38.6987H29.9122C29.2651 38.6987 28.7408 39.2226 28.7408 39.869C28.7408 40.5155 29.2653 41.0392 29.9122 41.0392H31.2398V42.3656C31.2398 43.0121 31.7644 43.5358 32.4112 43.5358C33.0581 43.5358 33.5826 43.012 33.5826 42.3656V41.0392H34.9103C35.5573 41.0392 36.0817 40.5154 36.0817 39.869C36.0817 39.2226 35.5572 38.6987 34.9103 38.6987Z"/>
<path d="M46.5023 1.71487C42.9775 0.576774 39.2875 0 35.535 0C26.0431 0 17.1195 3.6926 10.4078 10.3977C3.69625 17.1028 0 26.0176 0 35.4999C0 44.9823 3.69625 53.8971 10.408 60.6023C17.1197 67.3074 26.0433 71 35.5351 71C36.1822 71 36.7066 70.4761 36.7066 69.8298C36.7066 69.1832 36.182 68.6595 35.5351 68.6595C26.6692 68.6595 18.3339 65.2103 12.0648 58.9474C5.79562 52.684 2.34297 44.3571 2.34297 35.4999C2.34297 26.6427 5.79562 18.3158 12.0647 12.0528C18.3339 5.78959 26.6691 2.34066 35.535 2.34066C39.0426 2.34066 42.49 2.8795 45.7819 3.94235C46.3894 4.13919 47.0605 3.79531 47.2569 3.18872C47.4533 2.58167 47.1098 1.91092 46.5023 1.71487Z"/>
<path d="M79.7101 32.0845L75.5959 27.3869C75.1757 26.9073 74.4232 26.8568 73.9429 27.2767L70.6662 30.1411C69.5357 22.7042 66.0329 15.7628 60.6621 10.3973C58.1024 7.84017 55.2004 5.70134 52.0362 4.04048C51.471 3.74328 50.7512 3.96743 50.4542 4.53187C50.1573 5.09647 50.381 5.8156 50.9462 6.11234C53.9012 7.66378 56.6126 9.66227 59.0052 12.0526C64.6024 17.6442 67.9199 24.7439 68.5988 32.5838C68.6799 33.5192 69.8285 33.9834 70.5374 33.3637L74.6038 29.8089L77.1752 32.7448L68.0601 40.7127C67.3334 41.348 66.2156 41.348 65.4887 40.7127L56.3735 32.7448L58.9449 29.8089L62.6835 33.0769C63.4738 33.7677 64.741 33.0999 64.6185 32.0594C62.8846 17.3409 50.3813 6.24159 35.5351 6.24159C19.386 6.24159 6.24792 19.3667 6.24792 35.4999C6.24792 51.633 19.386 64.7581 35.5351 64.7581C36.1821 64.7581 36.7065 64.2343 36.7065 63.5877C36.7065 62.9412 36.182 62.4175 35.5351 62.4175C20.6781 62.4175 8.59089 50.3424 8.59089 35.4999C8.59089 20.6573 20.6779 8.58224 35.5349 8.58224C48.0896 8.58224 58.8235 17.2101 61.7151 29.1202L59.6063 27.2769C59.126 26.8572 58.3732 26.9077 57.9534 27.3871L53.8392 32.0846C53.4131 32.571 53.4624 33.3103 53.9495 33.736L63.9462 42.4744C65.5451 43.8721 68.0043 43.8721 69.6034 42.4744L79.6001 33.736C80.0868 33.3103 80.1362 32.571 79.7101 32.0845Z"/>
<path d="M54.9035 66.7866H46.2078C50.0812 63.9072 56.0751 58.5511 56.0751 52.9767C56.0751 48.8898 52.7467 45.5646 48.6557 45.5646C44.5648 45.5646 41.2363 48.8898 41.2363 52.9767C41.2363 53.6232 41.7609 54.1469 42.4078 54.1469C43.0546 54.1469 43.5792 53.623 43.5792 52.9767C43.5792 50.1802 45.8565 47.9053 48.6556 47.9053C51.4546 47.9053 53.732 50.1802 53.732 52.9767C53.732 59.7156 41.9238 66.8818 41.8048 66.9531C41.3448 67.2288 41.1287 67.8003 41.291 68.311C41.4437 68.7915 41.9032 69.1271 42.4076 69.1271H54.9034C55.5504 69.1271 56.0748 68.6032 56.0748 67.9568C56.0751 67.3104 55.5506 66.7866 54.9035 66.7866Z"/>
<path d="M73.6474 61.7933H71.0701V46.7351C71.0701 46.2554 70.7657 45.8133 70.3174 45.6419C69.8393 45.4591 69.2823 45.6159 68.9701 46.0212L56.4743 62.2497C55.8927 63.0051 56.4509 64.1337 57.4029 64.1337H68.7273V67.9567C68.7273 68.6033 69.2518 69.127 69.8987 69.127C70.5455 69.127 71.0701 68.6031 71.0701 67.9567V64.1337H73.6474C74.2945 64.1337 74.8188 63.6098 74.8188 62.9634C74.8188 62.317 74.2943 61.7933 73.6474 61.7933ZM68.7271 61.7933H59.7818L68.7271 50.176V61.7933Z"/>
</mask>
<path d="M32.4111 31.2086C27.1142 31.2086 22.8049 35.5138 22.8049 40.8054C22.8049 45.642 26.396 48.5296 32.4111 48.5296C38.4263 48.5296 42.0174 45.642 42.0174 40.8054C42.0174 35.5138 37.708 31.2086 32.4111 31.2086ZM32.4111 46.1888C29.6986 46.1888 25.1478 45.4894 25.1478 40.8052C25.1478 36.804 28.4061 33.5491 32.4111 33.5491C36.416 33.5491 39.6744 36.804 39.6744 40.8052C39.6744 45.4894 35.1236 46.1888 32.4111 46.1888Z" fill="#A07B50"/>
<path d="M27.7252 21.846C25.3306 21.846 23.742 24.8046 23.742 26.7615C23.742 28.9555 25.5287 30.7407 27.7252 30.7407C29.9216 30.7407 31.7083 28.9557 31.7083 26.7615C31.7083 24.8045 30.1197 21.846 27.7252 21.846ZM27.7252 28.3998C26.8208 28.3998 26.085 27.6649 26.085 26.7613C26.085 25.6543 27.02 24.1865 27.7252 24.1865C28.4303 24.1865 29.3653 25.6543 29.3653 26.7613C29.3653 27.6648 28.6295 28.3998 27.7252 28.3998Z" fill="#A07B50"/>
<path d="M37.097 21.846C34.7025 21.846 33.1139 24.8046 33.1139 26.7615C33.1139 28.9555 34.9006 30.7407 37.097 30.7407C39.2934 30.7407 41.0801 28.9557 41.0801 26.7615C41.0801 24.8045 39.4916 21.846 37.097 21.846ZM37.097 28.3998C36.1927 28.3998 35.4569 27.6649 35.4569 26.7613C35.4569 25.6543 36.3919 24.1865 37.097 24.1865C37.8022 24.1865 38.7372 25.6543 38.7372 26.7613C38.7372 27.6648 38.0014 28.3998 37.097 28.3998Z" fill="#A07B50"/>
<path d="M44.5945 27.4636C42.1999 27.4636 40.6113 30.4222 40.6113 32.379C40.6113 34.5731 42.3981 36.3582 44.5945 36.3582C46.7909 36.3582 48.5776 34.5733 48.5776 32.379C48.5776 30.4221 46.989 27.4636 44.5945 27.4636ZM44.5945 34.0174C43.6901 34.0174 42.9543 33.2825 42.9543 32.3789C42.9543 31.2719 43.8893 29.8041 44.5945 29.8041C45.2996 29.8041 46.2346 31.2719 46.2346 32.3789C46.2346 33.2824 45.4988 34.0174 44.5945 34.0174Z" fill="#A07B50"/>
<path d="M20.2276 27.4636C17.833 27.4636 16.2444 30.4222 16.2444 32.379C16.2444 34.5731 18.0312 36.3582 20.2276 36.3582C22.424 36.3582 24.2107 34.5733 24.2107 32.379C24.2107 30.4221 22.6221 27.4636 20.2276 27.4636ZM20.2276 34.0174C19.3232 34.0174 18.5874 33.2825 18.5874 32.3789C18.5874 31.2719 19.5224 29.8041 20.2276 29.8041C20.9327 29.8041 21.8677 31.2719 21.8677 32.3789C21.8677 33.2824 21.1319 34.0174 20.2276 34.0174Z" fill="#A07B50"/>
<path d="M34.9103 38.6987H33.5826V37.3724C33.5826 36.7258 33.0581 36.2021 32.4112 36.2021C31.7644 36.2021 31.2398 36.726 31.2398 37.3724V38.6987H29.9122C29.2651 38.6987 28.7408 39.2226 28.7408 39.869C28.7408 40.5155 29.2653 41.0392 29.9122 41.0392H31.2398V42.3656C31.2398 43.0121 31.7644 43.5358 32.4112 43.5358C33.0581 43.5358 33.5826 43.012 33.5826 42.3656V41.0392H34.9103C35.5573 41.0392 36.0817 40.5154 36.0817 39.869C36.0817 39.2226 35.5572 38.6987 34.9103 38.6987Z" fill="#A07B50"/>
<path d="M46.5023 1.71487C42.9775 0.576774 39.2875 0 35.535 0C26.0431 0 17.1195 3.6926 10.4078 10.3977C3.69625 17.1028 0 26.0176 0 35.4999C0 44.9823 3.69625 53.8971 10.408 60.6023C17.1197 67.3074 26.0433 71 35.5351 71C36.1822 71 36.7066 70.4761 36.7066 69.8298C36.7066 69.1832 36.182 68.6595 35.5351 68.6595C26.6692 68.6595 18.3339 65.2103 12.0648 58.9474C5.79562 52.684 2.34297 44.3571 2.34297 35.4999C2.34297 26.6427 5.79562 18.3158 12.0647 12.0528C18.3339 5.78959 26.6691 2.34066 35.535 2.34066C39.0426 2.34066 42.49 2.8795 45.7819 3.94235C46.3894 4.13919 47.0605 3.79531 47.2569 3.18872C47.4533 2.58167 47.1098 1.91092 46.5023 1.71487Z" fill="#A07B50"/>
<path d="M79.7101 32.0845L75.5959 27.3869C75.1757 26.9073 74.4232 26.8568 73.9429 27.2767L70.6662 30.1411C69.5357 22.7042 66.0329 15.7628 60.6621 10.3973C58.1024 7.84017 55.2004 5.70134 52.0362 4.04048C51.471 3.74328 50.7512 3.96743 50.4542 4.53187C50.1573 5.09647 50.381 5.8156 50.9462 6.11234C53.9012 7.66378 56.6126 9.66227 59.0052 12.0526C64.6024 17.6442 67.9199 24.7439 68.5988 32.5838C68.6799 33.5192 69.8285 33.9834 70.5374 33.3637L74.6038 29.8089L77.1752 32.7448L68.0601 40.7127C67.3334 41.348 66.2156 41.348 65.4887 40.7127L56.3735 32.7448L58.9449 29.8089L62.6835 33.0769C63.4738 33.7677 64.741 33.0999 64.6185 32.0594C62.8846 17.3409 50.3813 6.24159 35.5351 6.24159C19.386 6.24159 6.24792 19.3667 6.24792 35.4999C6.24792 51.633 19.386 64.7581 35.5351 64.7581C36.1821 64.7581 36.7065 64.2343 36.7065 63.5877C36.7065 62.9412 36.182 62.4175 35.5351 62.4175C20.6781 62.4175 8.59089 50.3424 8.59089 35.4999C8.59089 20.6573 20.6779 8.58224 35.5349 8.58224C48.0896 8.58224 58.8235 17.2101 61.7151 29.1202L59.6063 27.2769C59.126 26.8572 58.3732 26.9077 57.9534 27.3871L53.8392 32.0846C53.4131 32.571 53.4624 33.3103 53.9495 33.736L63.9462 42.4744C65.5451 43.8721 68.0043 43.8721 69.6034 42.4744L79.6001 33.736C80.0868 33.3103 80.1362 32.571 79.7101 32.0845Z" fill="#A07B50"/>
<path d="M54.9035 66.7866H46.2078C50.0812 63.9072 56.0751 58.5511 56.0751 52.9767C56.0751 48.8898 52.7467 45.5646 48.6557 45.5646C44.5648 45.5646 41.2363 48.8898 41.2363 52.9767C41.2363 53.6232 41.7609 54.1469 42.4078 54.1469C43.0546 54.1469 43.5792 53.623 43.5792 52.9767C43.5792 50.1802 45.8565 47.9053 48.6556 47.9053C51.4546 47.9053 53.732 50.1802 53.732 52.9767C53.732 59.7156 41.9238 66.8818 41.8048 66.9531C41.3448 67.2288 41.1287 67.8003 41.291 68.311C41.4437 68.7915 41.9032 69.1271 42.4076 69.1271H54.9034C55.5504 69.1271 56.0748 68.6032 56.0748 67.9568C56.0751 67.3104 55.5506 66.7866 54.9035 66.7866Z" fill="#A07B50"/>
<path d="M73.6474 61.7933H71.0701V46.7351C71.0701 46.2554 70.7657 45.8133 70.3174 45.6419C69.8393 45.4591 69.2823 45.6159 68.9701 46.0212L56.4743 62.2497C55.8927 63.0051 56.4509 64.1337 57.4029 64.1337H68.7273V67.9567C68.7273 68.6033 69.2518 69.127 69.8987 69.127C70.5455 69.127 71.0701 68.6031 71.0701 67.9567V64.1337H73.6474C74.2945 64.1337 74.8188 63.6098 74.8188 62.9634C74.8188 62.317 74.2943 61.7933 73.6474 61.7933ZM68.7271 61.7933H59.7818L68.7271 50.176V61.7933Z" fill="#A07B50"/>
<path d="M32.4111 31.2086C27.1142 31.2086 22.8049 35.5138 22.8049 40.8054C22.8049 45.642 26.396 48.5296 32.4111 48.5296C38.4263 48.5296 42.0174 45.642 42.0174 40.8054C42.0174 35.5138 37.708 31.2086 32.4111 31.2086ZM32.4111 46.1888C29.6986 46.1888 25.1478 45.4894 25.1478 40.8052C25.1478 36.804 28.4061 33.5491 32.4111 33.5491C36.416 33.5491 39.6744 36.804 39.6744 40.8052C39.6744 45.4894 35.1236 46.1888 32.4111 46.1888Z" stroke="#1F1C1D" mask="url(#path-1-inside-1)"/>
<path d="M27.7252 21.846C25.3306 21.846 23.742 24.8046 23.742 26.7615C23.742 28.9555 25.5287 30.7407 27.7252 30.7407C29.9216 30.7407 31.7083 28.9557 31.7083 26.7615C31.7083 24.8045 30.1197 21.846 27.7252 21.846ZM27.7252 28.3998C26.8208 28.3998 26.085 27.6649 26.085 26.7613C26.085 25.6543 27.02 24.1865 27.7252 24.1865C28.4303 24.1865 29.3653 25.6543 29.3653 26.7613C29.3653 27.6648 28.6295 28.3998 27.7252 28.3998Z" stroke="#1F1C1D" mask="url(#path-1-inside-1)"/>
<path d="M37.097 21.846C34.7025 21.846 33.1139 24.8046 33.1139 26.7615C33.1139 28.9555 34.9006 30.7407 37.097 30.7407C39.2934 30.7407 41.0801 28.9557 41.0801 26.7615C41.0801 24.8045 39.4916 21.846 37.097 21.846ZM37.097 28.3998C36.1927 28.3998 35.4569 27.6649 35.4569 26.7613C35.4569 25.6543 36.3919 24.1865 37.097 24.1865C37.8022 24.1865 38.7372 25.6543 38.7372 26.7613C38.7372 27.6648 38.0014 28.3998 37.097 28.3998Z" stroke="#1F1C1D" mask="url(#path-1-inside-1)"/>
<path d="M44.5945 27.4636C42.1999 27.4636 40.6113 30.4222 40.6113 32.379C40.6113 34.5731 42.3981 36.3582 44.5945 36.3582C46.7909 36.3582 48.5776 34.5733 48.5776 32.379C48.5776 30.4221 46.989 27.4636 44.5945 27.4636ZM44.5945 34.0174C43.6901 34.0174 42.9543 33.2825 42.9543 32.3789C42.9543 31.2719 43.8893 29.8041 44.5945 29.8041C45.2996 29.8041 46.2346 31.2719 46.2346 32.3789C46.2346 33.2824 45.4988 34.0174 44.5945 34.0174Z" stroke="#1F1C1D" mask="url(#path-1-inside-1)"/>
<path d="M20.2276 27.4636C17.833 27.4636 16.2444 30.4222 16.2444 32.379C16.2444 34.5731 18.0312 36.3582 20.2276 36.3582C22.424 36.3582 24.2107 34.5733 24.2107 32.379C24.2107 30.4221 22.6221 27.4636 20.2276 27.4636ZM20.2276 34.0174C19.3232 34.0174 18.5874 33.2825 18.5874 32.3789C18.5874 31.2719 19.5224 29.8041 20.2276 29.8041C20.9327 29.8041 21.8677 31.2719 21.8677 32.3789C21.8677 33.2824 21.1319 34.0174 20.2276 34.0174Z" stroke="#1F1C1D" mask="url(#path-1-inside-1)"/>
<path d="M34.9103 38.6987H33.5826V37.3724C33.5826 36.7258 33.0581 36.2021 32.4112 36.2021C31.7644 36.2021 31.2398 36.726 31.2398 37.3724V38.6987H29.9122C29.2651 38.6987 28.7408 39.2226 28.7408 39.869C28.7408 40.5155 29.2653 41.0392 29.9122 41.0392H31.2398V42.3656C31.2398 43.0121 31.7644 43.5358 32.4112 43.5358C33.0581 43.5358 33.5826 43.012 33.5826 42.3656V41.0392H34.9103C35.5573 41.0392 36.0817 40.5154 36.0817 39.869C36.0817 39.2226 35.5572 38.6987 34.9103 38.6987Z" stroke="#1F1C1D" mask="url(#path-1-inside-1)"/>
<path d="M46.5023 1.71487C42.9775 0.576774 39.2875 0 35.535 0C26.0431 0 17.1195 3.6926 10.4078 10.3977C3.69625 17.1028 0 26.0176 0 35.4999C0 44.9823 3.69625 53.8971 10.408 60.6023C17.1197 67.3074 26.0433 71 35.5351 71C36.1822 71 36.7066 70.4761 36.7066 69.8298C36.7066 69.1832 36.182 68.6595 35.5351 68.6595C26.6692 68.6595 18.3339 65.2103 12.0648 58.9474C5.79562 52.684 2.34297 44.3571 2.34297 35.4999C2.34297 26.6427 5.79562 18.3158 12.0647 12.0528C18.3339 5.78959 26.6691 2.34066 35.535 2.34066C39.0426 2.34066 42.49 2.8795 45.7819 3.94235C46.3894 4.13919 47.0605 3.79531 47.2569 3.18872C47.4533 2.58167 47.1098 1.91092 46.5023 1.71487Z" stroke="#1F1C1D" mask="url(#path-1-inside-1)"/>
<path d="M79.7101 32.0845L75.5959 27.3869C75.1757 26.9073 74.4232 26.8568 73.9429 27.2767L70.6662 30.1411C69.5357 22.7042 66.0329 15.7628 60.6621 10.3973C58.1024 7.84017 55.2004 5.70134 52.0362 4.04048C51.471 3.74328 50.7512 3.96743 50.4542 4.53187C50.1573 5.09647 50.381 5.8156 50.9462 6.11234C53.9012 7.66378 56.6126 9.66227 59.0052 12.0526C64.6024 17.6442 67.9199 24.7439 68.5988 32.5838C68.6799 33.5192 69.8285 33.9834 70.5374 33.3637L74.6038 29.8089L77.1752 32.7448L68.0601 40.7127C67.3334 41.348 66.2156 41.348 65.4887 40.7127L56.3735 32.7448L58.9449 29.8089L62.6835 33.0769C63.4738 33.7677 64.741 33.0999 64.6185 32.0594C62.8846 17.3409 50.3813 6.24159 35.5351 6.24159C19.386 6.24159 6.24792 19.3667 6.24792 35.4999C6.24792 51.633 19.386 64.7581 35.5351 64.7581C36.1821 64.7581 36.7065 64.2343 36.7065 63.5877C36.7065 62.9412 36.182 62.4175 35.5351 62.4175C20.6781 62.4175 8.59089 50.3424 8.59089 35.4999C8.59089 20.6573 20.6779 8.58224 35.5349 8.58224C48.0896 8.58224 58.8235 17.2101 61.7151 29.1202L59.6063 27.2769C59.126 26.8572 58.3732 26.9077 57.9534 27.3871L53.8392 32.0846C53.4131 32.571 53.4624 33.3103 53.9495 33.736L63.9462 42.4744C65.5451 43.8721 68.0043 43.8721 69.6034 42.4744L79.6001 33.736C80.0868 33.3103 80.1362 32.571 79.7101 32.0845Z" stroke="#1F1C1D" mask="url(#path-1-inside-1)"/>
<path d="M54.9035 66.7866H46.2078C50.0812 63.9072 56.0751 58.5511 56.0751 52.9767C56.0751 48.8898 52.7467 45.5646 48.6557 45.5646C44.5648 45.5646 41.2363 48.8898 41.2363 52.9767C41.2363 53.6232 41.7609 54.1469 42.4078 54.1469C43.0546 54.1469 43.5792 53.623 43.5792 52.9767C43.5792 50.1802 45.8565 47.9053 48.6556 47.9053C51.4546 47.9053 53.732 50.1802 53.732 52.9767C53.732 59.7156 41.9238 66.8818 41.8048 66.9531C41.3448 67.2288 41.1287 67.8003 41.291 68.311C41.4437 68.7915 41.9032 69.1271 42.4076 69.1271H54.9034C55.5504 69.1271 56.0748 68.6032 56.0748 67.9568C56.0751 67.3104 55.5506 66.7866 54.9035 66.7866Z" stroke="#1F1C1D" mask="url(#path-1-inside-1)"/>
<path d="M73.6474 61.7933H71.0701V46.7351C71.0701 46.2554 70.7657 45.8133 70.3174 45.6419C69.8393 45.4591 69.2823 45.6159 68.9701 46.0212L56.4743 62.2497C55.8927 63.0051 56.4509 64.1337 57.4029 64.1337H68.7273V67.9567C68.7273 68.6033 69.2518 69.127 69.8987 69.127C70.5455 69.127 71.0701 68.6031 71.0701 67.9567V64.1337H73.6474C74.2945 64.1337 74.8188 63.6098 74.8188 62.9634C74.8188 62.317 74.2943 61.7933 73.6474 61.7933ZM68.7271 61.7933H59.7818L68.7271 50.176V61.7933Z" stroke="#1F1C1D" mask="url(#path-1-inside-1)"/>
</svg>